<svg width="800" height="560" viewBox="0 0 800 560" fill="none" xmlns="http://www.w3.org/2000/svg">
<path d="M175.845 313.646H191.313V451.999H175.845V439.796H175.458C169.654 447.343 160.37 454.697 144.501 454.697C119.736 454.697 100 435.155 100 402.649C100 370.143 119.736 350.6 144.501 350.6C160.37 350.6 169.654 357.566 175.458 366.082H175.845V313.646ZM175.845 402.649C175.845 379.433 164.431 364.145 146.051 364.145C125.734 364.145 115.475 383.3 115.475 402.649C115.475 421.997 125.734 441.152 146.051 441.152C164.431 441.152 175.845 425.864 175.845 402.649Z" fill="white"/>
<path d="M249.083 364.144C230.315 364.144 224.117 369.561 223.155 383.88H207.674C208.642 364.919 220.444 350.6 249.083 350.6C267.85 350.6 284.681 357.953 284.681 381.729V429.717C284.681 437.457 286.064 441.712 295.901 440.55V451.389C292.994 452.466 289.911 452.989 286.811 452.932C277.521 452.932 271.911 450.421 269.206 439.581H268.791C262.6 448.871 251.573 454.675 235.323 454.675C215.394 454.675 202.811 443.261 202.811 426.617C202.811 404.177 219.447 398.373 245.008 393.537C261.652 390.438 269.22 388.308 269.22 378.443C269.206 370.723 264.945 364.144 249.083 364.144ZM269.206 413.868V397.425C266.301 400.324 256.816 403.035 246.378 405.166C227.216 409.226 218.292 414.062 218.292 425.863C218.292 435.548 224.096 441.151 236.873 441.151C255.274 441.151 269.206 432.829 269.206 413.868Z" fill="white"/>
<path d="M373.938 353.311H389.42V446.568C389.42 472.855 372.783 486.234 345.693 486.234C318.604 486.234 302.541 471.914 300.999 455.104H316.522C318.459 465.162 326.587 472.71 344.967 472.71C363.347 472.71 373.986 464.775 373.986 446.423V431.481H373.599C367.795 439.989 358.512 446.955 342.255 446.955C317.878 446.955 298.142 431.287 298.142 398.781C298.142 366.275 317.878 350.6 342.255 350.6C358.512 350.6 367.795 357.953 373.599 365.5H373.986L373.938 353.311ZM373.938 398.781C373.938 375.558 362.524 364.144 344.144 364.144C323.827 364.144 313.575 379.432 313.575 398.781C313.575 418.13 323.827 433.411 344.144 433.411C362.552 433.411 373.938 421.996 373.938 398.781V398.781Z" fill="white"/>
<path d="M484.544 424.902C484.544 442.888 468.101 454.696 445.654 454.696C415.472 454.696 401.54 440.377 400.571 419.098H416.053C417.014 430.125 420.895 441.151 445.654 441.151C462.484 441.151 469.063 432.442 469.063 425.863C469.063 411.551 456.099 410.776 441.98 407.29C426.886 403.616 404.438 401.873 404.438 378.657C404.438 363.176 418.177 350.6 441.399 350.6C465.971 350.6 479.128 364.532 480.671 381.556H465.196C463.646 374.016 459.973 364.144 441.399 364.144C427.467 364.144 419.955 369.755 419.955 377.495C419.955 389.103 433.306 390.072 447.044 393.364C464.615 397.619 484.544 400.517 484.544 424.902Z" fill="white"/>
<path d="M536.862 366.858H517.493V426.253C517.493 437.48 523.719 439.396 536.862 438.448V452C533.045 452.799 529.154 453.188 525.254 453.162C512.111 453.162 502.032 447.939 502.032 427.816V366.872H487.505V353.313H502.032V320.42H517.514V353.313H536.883L536.862 366.858Z" fill="white"/>
<path d="M619.126 421.609H634.608C629.572 439.989 615.453 454.696 590.881 454.696C560.887 454.696 542.7 433.604 542.7 402.648C542.7 369.754 561.274 350.6 590.107 350.6C621.063 350.6 636.157 371.691 636.157 406.709H558.182C558.182 424.514 568.821 441.151 590.3 441.151C610.036 441.151 617.383 428.381 619.126 421.609ZM558.182 393.198H620.676C620.676 377.329 608.681 364.144 590.107 364.144C571.533 364.144 558.182 377.288 558.182 393.198Z" fill="white"/>
<path d="M700 351.182V366.664H699.612C678.168 363.205 663.239 378.271 663.239 399.363V452H647.758V353.313H663.239V372.855H663.627C668.85 359.891 676.77 350.601 690.91 350.601C693.95 350.569 696.988 350.764 700 351.182V351.182Z" fill="white"/>
<path d="M363.249 285.039C363.253 286.268 363.51 287.482 364.004 288.608C364.498 289.733 365.218 290.744 366.121 291.578C367.023 292.412 368.087 293.051 369.247 293.455C370.407 293.86 371.638 294.02 372.863 293.927C419.422 290.594 463.395 257.644 477.434 206.18C478.172 203.22 480.393 201.736 483.352 201.736C484.868 201.797 486.3 202.454 487.336 203.563C488.372 204.673 488.93 206.147 488.887 207.664C488.887 219.14 474.137 249.129 453.044 266.533C451.969 267.437 451.112 268.573 450.537 269.855C449.961 271.137 449.682 272.532 449.721 273.937C449.742 275.079 449.989 276.206 450.446 277.252C450.904 278.299 451.564 279.245 452.388 280.036C453.211 280.827 454.183 281.448 455.247 281.862C456.311 282.277 457.447 282.477 458.588 282.452C460.437 282.452 463.395 281.341 467.092 278.008C481.842 264.675 509.954 227.281 509.954 186.181C509.954 125.924 463.369 74 398.355 74C340.343 74 290.088 121.393 290.088 176.191C290.088 212.473 318.912 239.868 356.967 239.868C386.164 239.868 413.14 219.14 420.533 190.625C421.27 187.666 423.483 186.181 426.441 186.181C427.959 186.242 429.391 186.899 430.429 188.008C431.467 189.118 432.026 190.591 431.986 192.11C431.986 205.069 407.596 250.266 358.078 250.266C346.252 250.266 331.476 246.933 321.124 241.005C319.739 240.333 318.229 239.955 316.691 239.894C315.512 239.848 314.338 240.047 313.24 240.478C312.143 240.909 311.146 241.563 310.313 242.397C309.48 243.232 308.829 244.23 308.401 245.329C307.972 246.428 307.775 247.603 307.823 248.782C307.871 250.292 308.303 251.764 309.079 253.06C309.855 254.356 310.949 255.432 312.257 256.186C325.931 263.998 342.191 268.034 358.816 268.034C400.203 268.034 437.895 239.894 448.983 198.429C449.721 195.469 451.942 193.985 454.892 193.985C456.41 194.046 457.842 194.702 458.88 195.811C459.917 196.921 460.477 198.394 460.437 199.913C460.437 216.943 430.138 271.741 371.753 276.185C369.494 276.353 367.376 277.349 365.807 278.983C364.237 280.617 363.327 282.774 363.249 285.039V285.039Z" fill="#DEDEFC"/>
<path d="M421.106 143.242C429.075 143.182 436.898 145.385 443.665 149.595C444.349 145.851 444.727 142.057 444.793 138.251C444.793 120.673 431.397 104.928 415.085 104.928C402.399 104.928 394.469 115.439 394.469 128.425C394.408 135.44 396.872 142.242 401.41 147.59C407.558 144.658 414.295 143.17 421.106 143.242V143.242Z" fill="white"/>
<path d="M459.327 206.917C461.592 199.175 462.589 193.802 462.589 190.312C462.52 188.806 461.875 187.383 460.786 186.339C459.697 185.295 458.249 184.71 456.741 184.705C455.337 184.731 453.981 185.226 452.89 186.112C451.799 186.997 451.035 188.222 450.72 189.592C450.104 192.135 448.785 199.027 447.483 203.402C448.021 201.764 448.513 200.101 448.958 198.411C449.696 195.442 451.917 193.967 454.867 193.967C456.384 194.026 457.816 194.68 458.854 195.788C459.892 196.896 460.452 198.369 460.412 199.887C460.342 202.273 459.96 204.639 459.275 206.926L459.327 206.917Z" fill="#C9C6FA"/>
<path d="M490.736 198.828C490.665 197.323 490.02 195.903 488.934 194.86C487.848 193.817 486.403 193.23 484.897 193.221C483.494 193.249 482.14 193.745 481.051 194.63C479.962 195.515 479.199 196.739 478.884 198.108C478.259 200.712 476.915 207.708 475.596 212.074H475.656C476.299 210.129 476.897 208.159 477.392 206.154C478.129 203.185 480.351 201.71 483.309 201.71C484.825 201.769 486.257 202.423 487.293 203.532C488.33 204.64 488.887 206.112 488.845 207.63C488.803 209.472 488.549 211.304 488.09 213.089C489.93 206.631 490.736 201.962 490.736 198.828Z" fill="#C9C6FA"/>
<path d="M421.107 143.241C425.067 143.233 429.01 143.762 432.829 144.812C434.834 142.077 435.836 138.735 435.666 135.347C435.496 131.96 434.165 128.735 431.897 126.214C429.629 123.693 426.562 122.031 423.212 121.507C419.863 120.983 416.435 121.63 413.506 123.338L419.58 133.337L408.205 128.416C406.664 130.903 405.891 133.79 405.984 136.714C406.077 139.639 407.03 142.471 408.725 144.856C412.762 143.767 416.926 143.224 421.107 143.241V143.241Z" fill="#0E0F34"/>
<path d="M333.473 207.595C338.265 207.595 342.149 203.708 342.149 198.914C342.149 194.121 338.265 190.234 333.473 190.234C328.681 190.234 324.796 194.121 324.796 198.914C324.796 203.708 328.681 207.595 333.473 207.595Z" fill="#C9C6FA"/>
<path d="M333.473 172.874C338.265 172.874 342.149 168.988 342.149 164.194C342.149 159.4 338.265 155.514 333.473 155.514C328.681 155.514 324.796 159.4 324.796 164.194C324.796 168.988 328.681 172.874 333.473 172.874Z" fill="#C9C6FA"/>
<path d="M316.118 190.235C320.91 190.235 324.795 186.349 324.795 181.555C324.795 176.761 320.91 172.875 316.118 172.875C311.326 172.875 307.441 176.761 307.441 181.555C307.441 186.349 311.326 190.235 316.118 190.235Z" fill="#C9C6FA"/>
<path d="M355.164 239.851H356.899C386.096 239.851 413.072 219.123 420.464 190.609C421.202 187.649 423.414 186.165 426.373 186.165C427.89 186.226 429.323 186.882 430.36 187.991C431.398 189.101 431.957 190.574 431.917 192.093C431.785 195.123 431.1 198.103 429.896 200.886C430.105 200.563 430.288 200.223 430.442 199.87C432.638 194.85 433.772 189.431 433.774 183.951C433.774 175.436 427.857 169.881 419.362 169.881C404.551 169.881 401.584 182.814 395.336 196.641C388.855 210.998 376.951 226.527 346.929 226.527C315.737 226.527 283.685 204.679 291.503 160.255C291.598 159.699 291.677 159.204 291.737 158.744C290.592 164.483 290.011 170.321 290.002 176.174C290.089 211.936 318.019 239.017 355.164 239.851Z" fill="#C9C6FA"/>
</svg>
